<?xml version="1.0" standalone="no"?>
<!DOCTYPE svg PUBLIC "-//W3C//DTD SVG 20010904//EN"
 "http://www.w3.org/TR/2001/REC-SVG-20010904/DTD/svg10.dtd">
<svg version="1.0" xmlns="http://www.w3.org/2000/svg"
 width="2048.000000pt" height="2048.000000pt" viewBox="0 0 2048.000000 2048.000000"
 preserveAspectRatio="xMidYMid meet">
<metadata>
Created by potrace 1.14, written by Peter Selinger 2001-2017
</metadata>
<g transform="translate(0.000000,2048.000000) scale(0.100000,-0.100000)"
fill="#000000" stroke="none">
<path d="M7277 20003 c-1 0 -78 -4 -172 -8 -93 -3 -190 -8 -215 -10 -25 -2
-88 -6 -140 -9 -52 -4 -113 -9 -135 -12 -77 -9 -110 -13 -175 -19 -36 -4 -76
-8 -90 -10 -14 -2 -50 -7 -80 -10 -30 -3 -80 -10 -110 -15 -30 -5 -73 -12 -95
-15 -63 -9 -102 -15 -220 -37 -60 -11 -119 -22 -130 -24 -33 -5 -67 -12 -140
-29 -38 -9 -92 -20 -118 -25 -27 -5 -52 -12 -56 -14 -4 -3 -23 -8 -42 -11 -41
-7 -392 -103 -422 -115 -12 -5 -69 -23 -127 -41 -58 -18 -193 -65 -300 -104
-722 -268 -1383 -641 -1970 -1109 -69 -55 -127 -103 -130 -106 -3 -3 -25 -23
-50 -44 -277 -241 -591 -563 -792 -816 -33 -41 -67 -84 -76 -95 -26 -31 -106
-137 -122 -161 -8 -12 -51 -73 -95 -135 -85 -121 -245 -366 -245 -375 0 -4
-13 -26 -30 -51 -16 -24 -30 -46 -30 -49 0 -2 -10 -21 -23 -42 -63 -100 -317
-604 -317 -628 0 -2 -12 -29 -26 -61 -14 -32 -29 -67 -34 -78 -77 -176 -246
-674 -286 -845 -2 -8 -15 -60 -29 -115 -28 -106 -32 -122 -40 -157 -2 -13 -14
-63 -25 -113 -22 -102 -56 -280 -65 -340 -3 -22 -7 -47 -10 -55 -2 -8 -6 -35
-9 -60 -3 -25 -8 -55 -10 -66 -5 -25 -35 -252 -40 -310 -3 -21 -8 -70 -12
-109 -11 -115 -12 -126 -19 -235 -4 -58 -10 -118 -13 -135 -3 -16 -8 -2888 -9
-6381 l-3 -6351 5217 1 5218 1 3 2661 2 2661 58 -8 c31 -5 77 -10 102 -13 25
-3 70 -8 100 -12 294 -34 871 -39 1200 -9 25 2 74 7 110 10 76 7 188 20 327
40 48 6 106 16 168 27 33 5 71 12 85 15 14 2 52 9 85 16 53 11 71 10 160 -10
157 -35 359 -67 565 -88 36 -4 72 -8 81 -10 129 -25 863 -25 1109 0 19 2 69 6
110 10 41 3 89 8 105 10 17 2 53 7 80 10 123 14 289 41 500 81 106 19 369 83
455 109 25 8 86 26 135 41 163 48 461 156 580 209 17 7 66 29 110 48 127 55
304 143 458 226 166 91 190 104 197 111 7 7 37 26 75 46 141 78 491 327 700
499 121 99 152 127 279 245 542 508 972 1088 1331 1795 244 481 395 884 535
1425 31 120 87 378 106 485 2 17 11 66 19 110 8 44 17 98 20 120 15 118 27
206 30 227 2 9 7 48 10 85 4 37 8 78 10 91 2 12 7 62 11 110 3 48 8 105 10
127 27 333 27 1116 0 1390 -3 22 -7 76 -11 120 -4 44 -8 94 -10 110 -2 17 -6
55 -10 85 -3 30 -7 71 -10 90 -2 19 -7 53 -10 75 -3 23 -7 50 -9 61 -2 12 -7
45 -11 75 -3 30 -8 61 -10 69 -2 8 -7 33 -10 55 -3 23 -8 52 -10 65 -3 14 -7
37 -10 52 -145 791 -455 1641 -848 2323 -156 271 -406 640 -548 810 -10 11
-64 76 -121 145 -258 309 -681 720 -978 949 -193 149 -492 362 -540 384 -8 4
-42 25 -75 46 -159 105 -501 289 -735 396 -332 153 -819 334 -1105 411 -110
29 -290 76 -308 80 -10 2 -26 6 -35 8 -87 28 -523 108 -732 136 -41 6 -84 12
-95 14 -11 2 -49 7 -85 11 -36 3 -72 8 -80 10 -8 2 -53 7 -100 10 -47 3 -96 8
-110 10 -14 2 -70 7 -125 10 -55 4 -118 8 -140 10 -336 28 -1055 23 -1430 -9
-33 -3 -94 -8 -135 -11 -41 -4 -86 -8 -100 -10 -14 -2 -54 -6 -90 -10 -36 -3
-94 -11 -130 -17 -65 -10 -137 -12 -175 -4 -11 2 -49 7 -85 10 -36 4 -76 9
-90 11 -14 3 -54 7 -90 10 -36 3 -81 8 -100 10 -19 2 -75 6 -125 10 -49 3
-112 8 -140 10 -312 23 -1025 24 -1305 0 -25 -2 -85 -6 -135 -10 -153 -11
-196 -15 -320 -30 -241 -29 -253 -30 -310 -21 -22 3 -61 8 -88 11 -26 3 -60 7
-75 9 -15 3 -61 8 -102 11 -41 3 -86 8 -100 10 -14 2 -70 7 -125 11 -55 3
-116 8 -135 9 -158 12 -914 27 -923 18z"/>
</g>
</svg>
